<svg xmlns="http://www.w3.org/2000/svg" viewBox="-14.2 269 623.6 311.8" enable-background="new -14.2 269 623.6 311.8"><path fill="#B9D300" d="M89 277.1c-53.1 0-79.2 22.3-87.3 50.8C-14.3 384 84 519 110.2 542.3c27.3 24.4 57.7 34.6 100.2 28.8C283.5 561 535.6 506 581.6 465.5c18.5-16.4 26-66.1-32.5-85.2-148-48.2-389.5-103.2-460.1-103.2z"/><linearGradient id="a" gradientUnits="userSpaceOnUse" x1="-.014" y1="773.644" x2="283.49" y2="773.644" gradientTransform="matrix(2.1 0 0 -2.1 0 2040.883)"><stop offset="0" stop-color="#009DE0"/><stop offset=".7" stop-color="#0B2265"/></linearGradient><path fill="url(#a)" d="M89 277.1c-53.1 0-79.2 22.3-87.3 50.8-16 56.1 84.4 180.8 113.4 200.7 32.3 22.3 67.6 33.2 125.6 23.5 93-15.5 308.2-57.5 341.2-86.5 18.5-16.4 26-66.1-32.5-85.2C401.1 332.1 159.6 277.1 89 277.1z"/><path fill="#fff" d="M289.3 345.4c-9.2 43.3-16 65.5-24.1 84.8-8.8 21-17.6 29.4-34.9 32.8l-7.8-18.9c8.4-1.9 16.2-7.8 18.9-17.2-9.4-26.2-20.6-51.2-28.1-81.5h24.1c5.7 21.4 16.6 53.3 16.6 53.3s7.1-18.1 12.6-53.3h22.7zm-208.2 5.2c-1.7-6.9 1.5-14.5 13.6-14.5 7.3 0 12.2 5 17.8 14.5 4.6-4 10.7-9 14.9-12.4-9.9-16.8-22.3-22-34.4-22-24.4 0-37.8 16.6-37.8 33 0 33 46 33.4 47.5 47.9.8 8.2-4.8 15.5-16.8 13.9-8.2-1-13.9-3.8-18.1-7.1l-13.8 16c9 6.3 19.1 13 34.9 13 26.7 0 40.1-13.2 40.1-34.6-.1-28.6-44.8-35.3-47.9-47.7zm132.2 80c-4.8-18.7-12.2-35.3-18.9-51.4 4.8-10.1 9.4-21.4 13-34h-21.2c-8 27.3-22.5 46.6-22.5 46.6v-74.5H140v113.4h19.5s8.8-8.8 19.5-24.8c3.4 7.6 6.7 16.4 8.6 24.8h25.7z"/><path fill="#B9D300" d="M390.3 406.7l-1-.4c-8-2.7-15.7-3.6-19.1-3.6-18.3 0-28.6 11.1-28.6 30.2 0 7.8 1.7 14.9 5 19.1 3.8 4.8 9.4 7.3 17 7.3 5.5 0 10.1-1.9 13.4-5l1.3 3.8h13.9l-1.9-11.1v-40.3zm-15.5 34.2c0 3.6-2.9 7.1-8.6 7.1-2.3 0-9.2-.8-9.2-15.5 0-8.2 2.1-18.1 11.5-18.1 2.5 0 4.8.4 6.3.8v25.7zm-50.2-15.3c6.5-3.6 10.1-9.9 10.1-17.6 0-13.4-8.6-19.9-26.7-19.9h-14.5l-10.3 35.5v34.9H299V431h8.8c2.5 0 4 1 5.5 4.4l7.8 23.1h18.1l-9.7-27.3c-1.1-2.5-3.2-4.4-4.9-5.6zm-16.6-7.2h-8.8v-17.6h5.7c10.1 0 13.6 1.3 13.6 8 .2 8.2-5.6 9.6-10.5 9.6zm201.2-15.7c-12.6 0-25.8 7.3-25.8 28.1 0 18.3 8.6 29 24.1 29 7.6 0 14.1-2.5 18.5-7.3 4.8-5.2 7.3-13.4 7.3-22.9.2-17.5-8.4-26.9-24.1-26.9zm-.8 45.3c-6.3 0-9.2-6.5-9.2-18.5 0-5.5 1.3-14.9 9.4-14.9 4.2 0 9 1.9 9 16.6 0 7.2-1.5 16.8-9.2 16.8zm-61.2-62.9h-15.5v18.5c-1.9-.4-3.8-.6-6.5-.6-16.6 0-26.9 11.5-26.9 30 0 17.2 7.6 26.9 22 26.9 5.2 0 10.1-1.9 13.4-5.2l1.5 3.8h13.6L447 447v-61.9h.2zm-15.5 56c0 2.9-2.9 6.7-8.8 6.7-2.3 0-9.2-.8-9.2-16.2 0-6.5 1.5-17.2 11.5-17.2 2.5 0 4.6.6 6.3 1V441h.2zm43.5-49.7c0 4.6-3.8 8.2-8.8 8.2-5.2 0-8.8-3.4-8.8-8.2 0-4.6 3.8-8.2 8.8-8.2s8.8 3.5 8.8 8.2zm-16.4 12.8h15.5v54h-15.5v-54z"/></svg>